<svg version="1.1" id="Layer_1" xmlns="http://www.w3.org/2000/svg" xmlns:xlink="http://www.w3.org/1999/xlink" x="0px" y="0px"
	 width="100%" viewBox="0 0 443 362" enable-background="new 0 0 443 362" xml:space="preserve">
<path fill="#3D3D3D" opacity="1.000000" stroke="none" 
	d="
M0.999999,311.000000 
	C1.000000,207.709061 1.000000,104.418129 1.000000,1.063599 
	C148.563660,1.063599 296.127350,1.063599 444.000000,1.063599 
	C444.000000,102.688469 444.000000,204.377258 443.664673,306.438477 
	C442.151581,305.508484 440.647369,304.378357 439.853302,302.873474 
	C436.602478,296.712494 433.993286,290.177948 430.377960,284.250549 
	C417.433563,263.028290 402.427063,243.556824 383.676666,226.893784 
	C367.128662,212.187912 348.893036,200.211533 329.382019,190.157135 
	C321.543427,186.117767 312.719543,183.990494 304.278503,180.530487 
	C304.212952,175.446060 304.212952,170.824097 304.212952,165.844131 
	C301.412445,165.688675 299.289185,165.488708 297.164093,165.466248 
	C284.027252,165.327393 270.889954,165.228516 257.760376,164.639404 
	C257.894836,156.822372 258.021698,149.482285 258.607788,142.151398 
	C277.534698,142.160294 296.003326,142.062836 314.469391,142.236038 
	C318.495026,142.273773 320.137146,141.210480 319.944153,136.939972 
	C319.636444,130.132416 319.651917,123.292206 319.936005,116.482712 
	C320.105255,112.425308 318.914215,111.000229 314.667847,111.052032 
	C297.034668,111.267128 279.397247,111.119888 261.761627,111.179649 
	C260.180267,111.185013 258.600677,111.722252 256.734558,112.182663 
	C246.704865,122.222351 236.960846,132.091827 227.051987,141.981445 
	C226.887131,142.001556 226.556396,142.032288 226.343613,141.797226 
	C225.792419,141.317749 225.453995,141.073349 224.945496,140.546112 
	C215.200348,130.830917 205.625290,121.398552 195.761841,111.654037 
	C182.628830,111.380013 169.784195,111.418129 156.640427,111.540138 
	C146.313019,121.733032 136.284744,131.842041 126.096222,142.398712 
	C125.966080,152.899887 125.996178,162.953430 125.923660,173.461731 
	C125.710190,178.276520 125.599342,182.636505 125.147614,187.040100 
	C112.809105,193.762573 100.497894,199.941849 88.884003,207.232040 
	C69.190742,219.593842 52.534241,235.495178 37.860310,253.509781 
	C25.312063,268.914764 14.819345,285.562988 6.563054,303.654907 
	C5.318700,306.381622 2.884053,308.565186 0.999999,311.000000 
z"/>
<path fill="#404040" opacity="1.000000" stroke="none" 
	d="
M0.999999,311.468658 
	C2.884053,308.565186 5.318700,306.381622 6.563054,303.654907 
	C14.819345,285.562988 25.312063,268.914764 37.860310,253.509781 
	C52.534241,235.495178 69.190742,219.593842 88.884003,207.232040 
	C100.497894,199.941849 112.809105,193.762573 125.233810,187.500854 
	C125.753807,193.284332 125.846710,198.650620 125.885239,204.481781 
	C125.830856,220.185333 125.830856,235.424057 125.830856,250.522812 
	C136.703232,250.522812 146.584045,250.522812 157.153809,250.522812 
	C157.153809,234.739273 157.153809,219.431458 157.115662,204.092102 
	C157.077530,204.060562 157.113876,204.152634 157.573700,204.183807 
	C170.520599,204.346786 183.007690,204.478607 195.505615,205.039337 
	C195.534424,219.077133 195.526489,232.686172 195.598694,246.294785 
	C195.609329,248.297821 194.942505,250.961288 198.407944,250.965652 
	C207.656250,250.977295 216.904572,250.969620 227.067612,250.969620 
	C227.067612,240.519913 227.067612,230.620575 227.366623,220.894241 
	C237.428543,230.722321 247.191437,240.377426 257.245819,250.343338 
	C277.130280,250.765076 296.723602,250.839828 316.315887,251.024948 
	C319.343903,251.053574 319.891022,249.521896 319.866852,246.991226 
	C319.797028,239.681503 319.625732,232.361588 319.928314,225.063675 
	C320.105408,220.790894 318.462708,219.746216 314.451813,219.783630 
	C295.678925,219.958771 276.903595,219.868851 258.038696,219.420807 
	C257.909119,211.627884 257.869934,204.287796 258.306030,196.878510 
	C272.268646,196.781189 285.756775,196.664932 299.242828,196.783966 
	C302.828339,196.815613 304.437195,195.803329 304.185944,191.966446 
	C303.947662,188.327667 304.268890,184.652252 304.344116,180.992950 
	C312.719543,183.990494 321.543427,186.117767 329.382019,190.157135 
	C348.893036,200.211533 367.128662,212.187912 383.676666,226.893784 
	C402.427063,243.556824 417.433563,263.028290 430.377960,284.250549 
	C433.993286,290.177948 436.602478,296.712494 439.853302,302.873474 
	C440.647369,304.378357 442.151581,305.508484 443.664673,306.905457 
	C444.000000,325.651825 444.000000,344.303680 444.000000,362.951935 
	C296.333313,362.948364 148.666656,362.948364 1.000000,362.948364 
	C1.000000,345.910278 1.000000,328.923798 0.999999,311.468658 
z"/>
<path fill="#CB543E" opacity="1.000000" stroke="none" 
	d="
M257.020264,112.012474 
	C258.600677,111.722252 260.180267,111.185013 261.761627,111.179649 
	C279.397247,111.119888 297.034668,111.267128 314.667847,111.052032 
	C318.914215,111.000229 320.105255,112.425308 319.936005,116.482712 
	C319.651917,123.292206 319.636444,130.132416 319.944153,136.939972 
	C320.137146,141.210480 318.495026,142.273773 314.469391,142.236038 
	C296.003326,142.062836 277.534698,142.160294 258.515747,142.061859 
	C257.964478,141.963135 257.780853,141.783661 257.835632,141.336914 
	C257.924896,136.787109 258.098602,132.679321 257.959778,128.582123 
	C257.772522,123.054642 257.344788,117.535301 257.020264,112.012474 
z"/>
<path fill="#CB543F" opacity="1.000000" stroke="none" 
	d="
M304.278534,180.530487 
	C304.268890,184.652252 303.947662,188.327667 304.185944,191.966446 
	C304.437195,195.803329 302.828339,196.815613 299.242828,196.783966 
	C285.756775,196.664932 272.268646,196.781189 258.060699,196.872086 
	C257.340088,196.934845 256.849518,196.917221 256.983337,196.525055 
	C257.079834,186.080444 257.042511,176.028000 257.118469,165.822723 
	C257.390717,165.471481 257.564392,165.286972 257.752808,165.116364 
	C270.889954,165.228516 284.027252,165.327393 297.164093,165.466248 
	C299.289185,165.488708 301.412445,165.688675 304.212952,165.844131 
	C304.212952,170.824097 304.212952,175.446060 304.278534,180.530487 
z"/>
<path fill="#0CA4B7" opacity="1.000000" stroke="none" 
	d="
M156.939560,111.456253 
	C169.784195,111.418129 182.628830,111.380013 195.559464,112.016815 
	C195.425385,122.479446 195.205307,132.267151 194.519287,142.098892 
	C181.759476,142.154053 169.465622,142.165192 157.078613,142.081924 
	C156.985474,141.987518 156.799072,141.798843 156.852158,141.350235 
	C156.916687,131.086502 156.928116,121.271385 156.939560,111.456253 
z"/>
<path fill="#0CA4B7" opacity="1.000000" stroke="none" 
	d="
M126.026283,173.006958 
	C125.996178,162.953430 125.966080,152.899887 126.547180,142.409210 
	C137.038620,141.914337 146.918854,141.856583 156.799072,141.798843 
	C156.799072,141.798843 156.985474,141.987518 156.991577,142.532013 
	C156.985535,153.064041 156.973389,163.051575 156.880249,173.108246 
	C156.799255,173.177368 156.632339,173.309647 156.190216,173.252716 
	C145.840820,173.132858 135.933548,173.069916 126.026283,173.006958 
z"/>
<path fill="#02BACF" opacity="1.000000" stroke="none" 
	d="
M125.923660,173.461746 
	C135.933548,173.069916 145.840820,173.132858 156.271423,173.689987 
	C156.901108,184.173660 157.007492,194.163147 157.113876,204.152634 
	C157.113876,204.152634 157.077530,204.060562 156.636398,204.064880 
	C146.110046,204.051773 136.024841,204.034348 125.939621,204.016922 
	C125.846710,198.650620 125.753807,193.284332 125.574699,187.457275 
	C125.599342,182.636505 125.710190,178.276520 125.923660,173.461746 
z"/>
<path fill="#0DA4B6" opacity="1.000000" stroke="none" 
	d="
M225.115585,140.828934 
	C225.453995,141.073349 225.792419,141.317749 226.344940,142.266754 
	C226.590759,150.635269 226.622452,158.299194 226.547638,166.335022 
	C226.508789,168.505493 226.576431,170.304062 226.486938,172.306732 
	C226.247192,172.661316 226.164581,172.811798 225.608292,172.973083 
	C215.331802,172.937363 205.529007,172.890823 195.672653,172.387878 
	C195.576111,162.073853 195.533127,152.216232 195.987610,142.298050 
	C202.958740,142.167557 209.436493,142.211411 215.904251,141.978119 
	C218.984512,141.867004 222.045731,141.228516 225.115585,140.828934 
z"/>
<path fill="#CB543F" opacity="1.000000" stroke="none" 
	d="
M226.654144,165.963104 
	C226.622452,158.299194 226.590759,150.635269 226.557739,142.501816 
	C226.556396,142.032288 226.887131,142.001556 227.504974,141.993530 
	C238.008820,141.918228 247.894836,141.850937 257.780853,141.783661 
	C257.780853,141.783661 257.964478,141.963135 258.056519,142.052673 
	C258.021698,149.482285 257.894836,156.822372 257.760376,164.639404 
	C257.564392,165.286972 257.390717,165.471481 256.649292,165.820633 
	C246.262558,165.968628 236.458359,165.965866 226.654144,165.963104 
z"/>
<path fill="#03B6CD" opacity="1.000000" stroke="none" 
	d="
M156.852158,141.350235 
	C146.918854,141.856583 137.038620,141.914337 126.707428,141.961563 
	C136.284744,131.842041 146.313019,121.733032 156.640427,111.540146 
	C156.928116,121.271385 156.916687,131.086502 156.852158,141.350235 
z"/>
<path fill="#E6583E" opacity="1.000000" stroke="none" 
	d="
M257.835632,141.336914 
	C247.894836,141.850937 238.008820,141.918228 227.669830,141.973419 
	C236.960846,132.091827 246.704865,122.222351 256.734558,112.182663 
	C257.344788,117.535301 257.772522,123.054642 257.959778,128.582123 
	C258.098602,132.679321 257.924896,136.787109 257.835632,141.336914 
z"/>
<path fill="#03B8CE" opacity="1.000000" stroke="none" 
	d="
M224.945496,140.546112 
	C222.045731,141.228516 218.984512,141.867004 215.904251,141.978119 
	C209.436493,142.211411 202.958740,142.167557 195.842407,142.253693 
	C195.199738,142.269882 194.985229,142.054871 194.985229,142.054871 
	C195.205307,132.267151 195.425385,122.479446 195.847839,112.328964 
	C205.625290,121.398552 215.200348,130.830917 224.945496,140.546112 
z"/>
<path fill="#CD553F" opacity="1.000000" stroke="none" 
	d="
M258.129120,219.873627 
	C276.903595,219.868851 295.678925,219.958771 314.451813,219.783630 
	C318.462708,219.746216 320.105408,220.790894 319.928314,225.063675 
	C319.625732,232.361588 319.797028,239.681503 319.866852,246.991226 
	C319.891022,249.521896 319.343903,251.053574 316.315887,251.024948 
	C296.723602,250.839828 277.130280,250.765076 257.449982,249.981415 
	C257.496826,239.617722 257.630951,229.926773 257.856079,220.145264 
	C257.947052,220.054703 258.129120,219.873627 258.129120,219.873627 
z"/>
<path fill="#10A5B7" opacity="1.000000" stroke="none" 
	d="
M227.067612,220.721252 
	C227.067612,230.620575 227.067612,240.519913 227.067612,250.969620 
	C216.904572,250.969620 207.656250,250.977295 198.407944,250.965652 
	C194.942505,250.961288 195.609329,248.297821 195.598694,246.294785 
	C195.526489,232.686172 195.534424,219.077133 195.640411,204.875946 
	C195.764343,204.283646 196.031082,203.957901 196.496063,203.979492 
	C206.849182,203.982834 216.737350,203.964615 226.666245,204.415405 
	C226.834473,209.958801 226.961960,215.033203 227.055435,220.260010 
	C227.021408,220.412399 227.067612,220.721252 227.067612,220.721252 
z"/>
<path fill="#0DA5B8" opacity="1.000000" stroke="none" 
	d="
M125.885239,204.481781 
	C136.024841,204.034348 146.110046,204.051773 156.674530,204.096420 
	C157.153809,219.431458 157.153809,234.739273 157.153809,250.522812 
	C146.584045,250.522812 136.703232,250.522812 125.830856,250.522812 
	C125.830856,235.424057 125.830856,220.185333 125.885239,204.481781 
z"/>
<path fill="#0DA6B9" opacity="1.000000" stroke="none" 
	d="
M157.573700,204.183807 
	C157.007492,194.163147 156.901108,184.173660 156.713531,173.746918 
	C156.632339,173.309647 156.799255,173.177368 157.348175,173.173248 
	C170.286789,173.232971 182.676453,173.296799 195.068176,173.805054 
	C195.390503,184.152283 195.710800,194.055099 196.031082,203.957901 
	C196.031082,203.957901 195.764343,204.283646 195.629547,204.447037 
	C183.007690,204.478607 170.520599,204.346786 157.573700,204.183807 
z"/>
<path fill="#CD553F" opacity="1.000000" stroke="none" 
	d="
M227.089447,220.107605 
	C226.961960,215.033203 226.834473,209.958801 226.757034,203.989090 
	C226.869705,201.053329 226.932343,199.012894 227.463928,196.973236 
	C237.571762,196.955078 247.210648,196.936142 256.849518,196.917206 
	C256.849518,196.917221 257.340088,196.934845 257.585388,196.941284 
	C257.869934,204.287796 257.909119,211.627884 258.038696,219.420807 
	C258.129120,219.873627 257.947052,220.054703 257.412689,220.085266 
	C246.948700,220.113083 237.019073,220.110336 227.089447,220.107605 
z"/>
<path fill="#E9583E" opacity="1.000000" stroke="none" 
	d="
M227.055420,220.259995 
	C237.019073,220.110336 246.948700,220.113083 257.321716,220.175842 
	C257.630951,229.926773 257.496826,239.617722 257.158508,249.670593 
	C247.191437,240.377426 237.428543,230.722321 227.366623,220.894241 
	C227.067612,220.721252 227.021408,220.412399 227.055420,220.259995 
z"/>
<path fill="#E9583E" opacity="1.000000" stroke="none" 
	d="
M256.983337,196.525055 
	C247.210648,196.936142 237.571762,196.955078 227.306061,196.531296 
	C226.727463,188.526398 226.775696,180.964233 226.854767,173.179749 
	C226.883163,172.650452 226.802658,172.365524 226.644073,172.102646 
	C226.576431,170.304062 226.508789,168.505493 226.547638,166.335007 
	C236.458359,165.965866 246.262558,165.968628 256.535950,165.973450 
	C257.042511,176.028000 257.079834,186.080444 256.983337,196.525055 
z"/>
<path fill="#3D4040" opacity="1.000000" stroke="none" 
	d="
M195.066132,173.360626 
	C182.676453,173.296799 170.286789,173.232971 157.429184,173.104126 
	C156.973389,163.051575 156.985535,153.064041 157.084717,142.626404 
	C169.465622,142.165192 181.759476,142.154053 194.519287,142.098892 
	C194.985229,142.054871 195.199738,142.269882 195.344940,142.314240 
	C195.533127,152.216232 195.576111,162.073853 195.486710,172.490143 
	C195.354324,173.048828 195.066132,173.360611 195.066132,173.360626 
z"/>
<path fill="#02BACF" opacity="1.000000" stroke="none" 
	d="
M195.068176,173.805054 
	C195.066132,173.360611 195.354324,173.048828 195.540268,172.946564 
	C205.529007,172.890823 215.331802,172.937363 225.787109,173.094391 
	C226.439606,173.204895 226.823944,173.402054 226.823944,173.402054 
	C226.775696,180.964233 226.727463,188.526398 226.837097,196.530518 
	C226.932343,199.012894 226.869705,201.053329 226.716293,203.520081 
	C216.737350,203.964615 206.849182,203.982834 196.496063,203.979492 
	C195.710800,194.055099 195.390503,184.152283 195.068176,173.805054 
z"/>
<path fill="#CB543F" opacity="1.000000" stroke="none" 
	d="
M226.854767,173.179749 
	C226.823944,173.402054 226.439606,173.204895 226.260803,173.083588 
	C226.164581,172.811798 226.247192,172.661316 226.486938,172.306732 
	C226.802658,172.365524 226.883163,172.650452 226.854767,173.179749 
z"/>
</svg>